<svg width="120" height="146" viewBox="0 0 120 146" fill="none" xmlns="http://www.w3.org/2000/svg">
<g filter="url(#filter0_i_34_3806)">
<path d="M80 41.7143V3.25893C81.1458 4.01935 82.0833 4.77976 82.8125 5.54018L114.688 38.7813C115.417 39.5417 116.146 40.5193 116.875 41.7143H80ZM70 44.3214C70 46.494 70.7292 48.3408 72.1875 49.8616C73.6458 51.3824 75.4167 52.1429 77.5 52.1429H120V138.179C120 140.351 119.271 142.198 117.812 143.719C116.354 145.24 114.583 146 112.5 146H7.5C5.41667 146 3.64583 145.24 2.1875 143.719C0.729167 142.198 0 140.351 0 138.179V7.82143C0 5.64881 0.729167 3.80208 2.1875 2.28125C3.64583 0.760417 5.41667 0 7.5 0H70V44.3214Z" fill="#20ACFB"/>
</g>
<g clip-path="url(#clip0_34_3806)">
<path d="M33.44 102V73.88H38.8V102H33.44ZM27.92 78.6V73.88H38.4V78.6H27.92ZM51.54 90.88V86.32H69.66V90.88H51.54ZM58.3 79.08H62.94V98.08H58.3V79.08ZM85.94 102V73.88H91.3V102H85.94ZM80.42 78.6V73.88H90.9V78.6H80.42Z" fill="white"/>
</g>
<defs>
<filter id="filter0_i_34_3806" x="0" y="0" width="120" height="150" filterUnits="userSpaceOnUse" color-interpolation-filters="sRGB">
<feFlood flood-opacity="0" result="BackgroundImageFix"/>
<feBlend mode="normal" in="SourceGraphic" in2="BackgroundImageFix" result="shape"/>
<feColorMatrix in="SourceAlpha" type="matrix" values="0 0 0 0 0 0 0 0 0 0 0 0 0 0 0 0 0 0 127 0" result="hardAlpha"/>
<feOffset dy="4"/>
<feGaussianBlur stdDeviation="2"/>
<feComposite in2="hardAlpha" operator="arithmetic" k2="-1" k3="1"/>
<feColorMatrix type="matrix" values="0 0 0 0 0 0 0 0 0 0 0 0 0 0 0 0 0 0 0.1 0"/>
<feBlend mode="normal" in2="shape" result="effect1_innerShadow_34_3806"/>
</filter>
<clipPath id="clip0_34_3806">
<rect width="65" height="29" fill="white" transform="translate(27 73)"/>
</clipPath>
</defs>
</svg>
