<svg width="36" height="57" viewBox="0 0 36 57" fill="none" xmlns="http://www.w3.org/2000/svg">
<g clip-path="url(#clip0_58_3833)">
<g filter="url(#filter0_i_58_3833)">
<path d="M0 43C0 34.7157 6.71573 28 15 28H21C29.2843 28 36 34.7157 36 43V52C36 54.7614 33.7614 57 31 57H5C2.23858 57 0 54.7614 0 52V43Z" fill="white"/>
</g>
<g filter="url(#filter1_i_58_3833)">
<path d="M18.5 27C25.9558 27 32 20.9558 32 13.5C32 6.04416 25.9558 0 18.5 0C11.0442 0 5 6.04416 5 13.5C5 20.9558 11.0442 27 18.5 27Z" fill="white"/>
</g>
</g>
<defs>
<filter id="filter0_i_58_3833" x="0" y="28" width="36" height="33" filterUnits="userSpaceOnUse" color-interpolation-filters="sRGB">
<feFlood flood-opacity="0" result="BackgroundImageFix"/>
<feBlend mode="normal" in="SourceGraphic" in2="BackgroundImageFix" result="shape"/>
<feColorMatrix in="SourceAlpha" type="matrix" values="0 0 0 0 0 0 0 0 0 0 0 0 0 0 0 0 0 0 127 0" result="hardAlpha"/>
<feOffset dy="4"/>
<feGaussianBlur stdDeviation="2"/>
<feComposite in2="hardAlpha" operator="arithmetic" k2="-1" k3="1"/>
<feColorMatrix type="matrix" values="0 0 0 0 0 0 0 0 0 0 0 0 0 0 0 0 0 0 0.1 0"/>
<feBlend mode="normal" in2="shape" result="effect1_innerShadow_58_3833"/>
</filter>
<filter id="filter1_i_58_3833" x="5" y="0" width="27" height="31" filterUnits="userSpaceOnUse" color-interpolation-filters="sRGB">
<feFlood flood-opacity="0" result="BackgroundImageFix"/>
<feBlend mode="normal" in="SourceGraphic" in2="BackgroundImageFix" result="shape"/>
<feColorMatrix in="SourceAlpha" type="matrix" values="0 0 0 0 0 0 0 0 0 0 0 0 0 0 0 0 0 0 127 0" result="hardAlpha"/>
<feOffset dy="4"/>
<feGaussianBlur stdDeviation="2"/>
<feComposite in2="hardAlpha" operator="arithmetic" k2="-1" k3="1"/>
<feColorMatrix type="matrix" values="0 0 0 0 0 0 0 0 0 0 0 0 0 0 0 0 0 0 0.1 0"/>
<feBlend mode="normal" in2="shape" result="effect1_innerShadow_58_3833"/>
</filter>
<clipPath id="clip0_58_3833">
<rect width="36" height="57" fill="white"/>
</clipPath>
</defs>
</svg>
