<svg width="120" height="146" viewBox="0 0 120 146" fill="none" xmlns="http://www.w3.org/2000/svg">
<g clip-path="url(#clip0_43_3809)">
<g filter="url(#filter0_i_43_3809)">
<path d="M80 41.7143V3.25893C81.1458 4.01935 82.0833 4.77976 82.8125 5.54018L114.688 38.7812C115.417 39.5417 116.146 40.5193 116.875 41.7143H80ZM70 44.3214C70 46.494 70.7292 48.3408 72.1875 49.8616C73.6458 51.3824 75.4167 52.1429 77.5 52.1429H120V138.179C120 140.351 119.271 142.198 117.812 143.719C116.354 145.24 114.583 146 112.5 146H7.5C5.41667 146 3.64583 145.24 2.1875 143.719C0.729167 142.198 0 140.351 0 138.179V7.82143C0 5.64881 0.729167 3.80208 2.1875 2.28125C3.64583 0.760417 5.41667 0 7.5 0H70V44.3214Z" fill="#20ACFB"/>
</g>
<path d="M27.88 89.56V85.12H34.4C35.2533 85.12 36.0267 84.9467 36.72 84.6C37.4133 84.2533 37.96 83.76 38.36 83.12C38.76 82.4533 38.96 81.6533 38.96 80.72C38.96 79.8133 38.76 79.0267 38.36 78.36C37.96 77.6933 37.4133 77.1867 36.72 76.84C36.0267 76.4933 35.2533 76.32 34.4 76.32H27.88V71.88H34.96C36.7467 71.88 38.3467 72.24 39.76 72.96C41.2 73.68 42.3333 74.7067 43.16 76.04C43.9867 77.3467 44.4 78.9067 44.4 80.72C44.4 82.5333 43.9867 84.1067 43.16 85.44C42.3333 86.7467 41.2 87.76 39.76 88.48C38.3467 89.2 36.7467 89.56 34.96 89.56H27.88ZM23.88 100V71.88H29.32V100H23.88ZM51.975 100V95.16H59.135C60.9483 95.16 62.535 94.7867 63.895 94.04C65.255 93.2667 66.3083 92.1867 67.055 90.8C67.8283 89.4133 68.215 87.7733 68.215 85.88C68.215 84.04 67.8283 82.44 67.055 81.08C66.2817 79.6933 65.215 78.6267 63.855 77.88C62.495 77.1067 60.9217 76.72 59.135 76.72H51.855V71.88H59.215C61.295 71.88 63.215 72.2267 64.975 72.92C66.7617 73.6133 68.3083 74.6 69.615 75.88C70.9483 77.1333 71.975 78.6133 72.695 80.32C73.4417 82.0267 73.815 83.8933 73.815 85.92C73.815 87.9467 73.4417 89.8267 72.695 91.56C71.975 93.2667 70.9617 94.76 69.655 96.04C68.3483 97.2933 66.8017 98.2667 65.015 98.96C63.255 99.6533 61.3483 100 59.295 100H51.975ZM48.255 100V71.88H53.695V100H48.255ZM78.1378 100V71.88H83.5778V100H78.1378ZM82.1378 88.48V83.64H96.2978V88.48H82.1378ZM82.1378 76.68V71.88H96.9778V76.68H82.1378Z" fill="white"/>
</g>
<defs>
<filter id="filter0_i_43_3809" x="0" y="0" width="120" height="150" filterUnits="userSpaceOnUse" color-interpolation-filters="sRGB">
<feFlood flood-opacity="0" result="BackgroundImageFix"/>
<feBlend mode="normal" in="SourceGraphic" in2="BackgroundImageFix" result="shape"/>
<feColorMatrix in="SourceAlpha" type="matrix" values="0 0 0 0 0 0 0 0 0 0 0 0 0 0 0 0 0 0 127 0" result="hardAlpha"/>
<feOffset dy="4"/>
<feGaussianBlur stdDeviation="2"/>
<feComposite in2="hardAlpha" operator="arithmetic" k2="-1" k3="1"/>
<feColorMatrix type="matrix" values="0 0 0 0 0 0 0 0 0 0 0 0 0 0 0 0 0 0 0.1 0"/>
<feBlend mode="normal" in2="shape" result="effect1_innerShadow_43_3809"/>
</filter>
<clipPath id="clip0_43_3809">
<rect width="120" height="146" fill="white"/>
</clipPath>
</defs>
</svg>
