<svg width="160" height="190" viewBox="0 0 160 190" fill="none" xmlns="http://www.w3.org/2000/svg">
<path d="M107.358 160.647L105.116 181.642L114.364 184.442" stroke="#1A9EE8" stroke-width="10" stroke-linecap="round"/>
<path d="M107.358 160.647L105.116 181.642L114.364 184.442" stroke="#1A9EE8" stroke-width="10" stroke-linecap="round"/>
<path d="M63.1927 156.134L57.0587 181.687L47.1803 182.088" stroke="#1A9EE8" stroke-width="10" stroke-linecap="round"/>
<path d="M44.5819 117.816L42.5482 120.579C34.7431 131.182 23.9296 139.193 11.5125 143.57V143.57" stroke="#1A9EE8" stroke-width="10" stroke-linecap="round"/>
<path d="M121.931 113.057L123.964 115.82C131.769 126.423 142.583 134.434 155 138.811V138.811" stroke="#1A9EE8" stroke-width="10" stroke-linecap="round"/>
<path d="M126.415 56.5559C126.415 33.0298 107.343 13.9581 83.8167 13.9581C60.2906 13.9581 41.2189 33.0298 41.2189 56.5559V152.288C41.2189 155.049 43.4575 157.288 46.2189 157.288H121.415C124.176 157.288 126.415 155.049 126.415 152.288V56.5559Z" fill="#20ACFB"/>
<path d="M106.797 85.6228V107.458" stroke="white" stroke-width="10" stroke-linecap="round"/>
<path d="M87.1798 85.6228V107.458" stroke="white" stroke-width="10" stroke-linecap="round"/>
<path d="M100.79 107.599C100.79 110.691 103.299 113.198 106.395 113.198C109.491 113.198 112 110.691 112 107.599C112 104.507 109.491 102 106.395 102C103.299 102 100.79 104.507 100.79 107.599Z" fill="#20ACFB"/>
<path d="M81.79 107.599C81.79 110.691 84.2995 113.198 87.395 113.198C90.4906 113.198 93 110.691 93 107.599C93 104.507 90.4906 102 87.395 102C84.2995 102 81.79 104.507 81.79 107.599Z" fill="#20ACFB"/>
<path d="M65.0403 110.817C65.0403 110.817 130.058 131.813 128.096 137.412C126.135 143.011 130.899 156.168 128.096 156.168H42.6204C37.8564 156.168 39.5374 107.458 41.2191 104.099C42.9009 100.74 65.0403 110.817 65.0403 110.817Z" fill="#F1EDE8"/>
<path d="M128.096 156.168C130.899 156.168 126.135 143.011 128.096 137.412C130.058 131.813 65.0403 110.817 65.0403 110.817C65.0403 110.817 42.9009 100.74 41.2191 104.099C39.5374 107.458 37.8564 156.168 42.6204 156.168M128.096 156.168C125.294 156.168 47.3844 156.168 42.6204 156.168M128.096 156.168H42.6204" stroke="#F1EDE8" stroke-width="10" stroke-linecap="round"/>
<path d="M107.638 152.249C84.1088 143.718 72.6373 138.699 63.6389 128.174M54.6709 114.457C47.4666 113.782 41.4992 106.058 42.0597 107.178C42.6202 108.298 42.7565 114.259 45.9832 118.656M77.9316 152.249C61.7016 143.005 51.9147 137.846 48.2252 128.174" stroke="#D2D2D2" stroke-width="2" stroke-linecap="round"/>
<ellipse cx="8.40747" cy="8.39821" rx="8.40747" ry="8.39821" transform="matrix(-1 0 0 1 74.2883 102.419)" fill="#FFE96D"/>
<path d="M121.65 144.97C103.671 139.346 92.8542 134.141 72.0463 120.615" stroke="#D2D2D2" stroke-width="2" stroke-linecap="round"/>
<path d="M121.208 28.1077C94.1698 -8.43683 57.6281 0.869634 27.6049 38.4655C13.1516 50.0703 30.1271 61.4206 30.1271 61.4206C30.1271 61.4206 24.5222 64.5 13.3122 82.4161C2.10225 100.332 3.22324 112.93 10.79 116.569C18.3567 120.208 27.6049 106.211 27.6049 106.211C27.6049 106.211 25.6432 118.528 30.1271 122.728C34.6111 126.927 40.4964 106.211 40.4964 106.211C40.4964 106.211 38.8585 119.278 50.8656 118.528C62.8726 117.779 55.4494 45.576 72.4447 46.8637C89.4401 48.1515 111.68 80.7365 127.654 92.2141C143.628 103.692 144.718 66.0698 121.208 28.1077Z" fill="#1A9EE8" stroke="#1A9EE8" stroke-width="10" stroke-linecap="round"/>
</svg>
